#!OML:ASF E:/inclinewalkrobotboard/Project1/Captureday1/Session1/subject1.ASF
:FULLY-SPECIFIED
:DEGREES
113
root 0 0 0 0.4605951694453063 -3.1664231268664165 1.254922637171134
lowerback 11.504509323681523 0.6332329017499981 -0.5301761861381346
upperback -2.778372624479084 0.8001373823063701 0.017168079546343584
thorax -9.449829695954337 0.3571826464856166 0.19716695376952265
lowerneck -9.800820431002347 0.2615073892280231 2.3752800232775386
upperneck 18.552483258045818 1.1306503210939813 -5.503767554416122
head 7.447328954701191 0.2726357755834925 -2.0898648040346632
rclavicle 2.125141569117076E-16 -7.381933642204927E-16
rhumerus 2.5815366724171476 3.438260204310744 -59.565632858195684
rradius 56.196004448662244
rwrist 17.539600070434588
rhand -28.40033406740428 -27.544421595730118
rfingers 7.125019999999986
rthumb -1.7678370929445544 -57.78327194842352
lclavicle -8.352981141700788E-16 -1.750065086779034E-16
lhumerus 3.0733341488770023 -9.59970273830416 59.03665877402962
lradius 55.77370801916595
lwrist -11.271934432988848
lhand -38.86114102288212 -35.98994366669765
lfingers 7.125019999999983
lthumb -11.802230732314715 -6.297560902391538
rfemur -25.283989863617755 1.793785158384337 20.026568228006983
rtibia 47.717080819059454
rfoot -7.330404502438313 -9.858036368401466
rtoes -1.4365094793409707
lfemur -14.873836866220584 -0.3212029796184438 -17.18688478745749
ltibia 42.465066304871556
lfoot -6.060460809291651 -4.735087014141294
ltoes -6.224633571623542
114
root 0 0 0 0.4606396760326419 -3.1654485611902285 1.2566828189048735
lowerback 11.504634827864265 0.6325977425496883 -0.5318960308767083
upperback -2.7785188318651213 0.7990574119137153 0.017044911343293556
thorax -9.450095323116487 0.35669749735921785 0.19822517147695895
lowerneck -9.80031274524197 0.2617706889160156 2.375434246934619
upperneck 18.55264751670584 1.1311074608023892 -5.504202254627247
head 7.447324565952228 0.27284102567545454 -2.0899788309341067
rclavicle 2.1265929809357604E-16 -7.381374102739239E-16
rhumerus 2.5816978981107646 3.438314833717742 -59.56543059107832
rradius 56.19618739369505
rwrist 17.53973346020976
rhand -28.40038728704184 -27.54474245215749
rfingers 7.125019999999986
rthumb -1.7679102237505813 -57.783617447260006
lclavicle -8.353193961108576E-16 -1.7505181659335402E-16
lhumerus 3.072562881712095 -9.59944381355904 59.03718863373946
lradius 55.77302319935954
lwrist -11.271618119749554
lhand -38.8608661110329 -35.98876849299458
lfingers 7.125019999999983
lthumb -11.801975020244187 -6.296381999831702
rfemur -25.31410001505704 1.7853876160023445 20.011494882485252
rtibia 47.75540462850775
rfoot -7.314536833472674 -9.861148089098743
rtoes -1.4365005945575557
lfemur -14.876321590327928 -0.3139731581735621 -17.18168986625114
ltibia 42.51602966573138
lfoot -6.042753117203129 -4.753723967070027
ltoes -6.233811282503672
115
root 0 0 0 0.4607686312611108 -3.1636183255790233 1.2598088158100247
lowerback 11.504802773787619 0.6314189992557188 -0.5350281732541619
upperback -2.778777417968323 0.7970738750015204 0.016854520450564348
thorax -9.45052349528403 0.35580767649780043 0.20015857027502726
lowerneck -9.79948561440538 0.2622672475548353 2.3756848073123846
upperneck 18.55274249398019 1.1319161151535413 -5.504894557551218
head 7.447251468418485 0.2732099810461637 -2.090147231370446
rclavicle 2.1268533203647052E-16 -7.380693945483196E-16
rhumerus 2.581789058414671 3.438319637699422 -59.565334585694266
rradius 56.19625958445067
rwrist 17.53982867798089
rhand -28.40041437501099 -27.544906229716123
rfingers 7.125019999999986
rthumb -1.7679474935894435 -57.78378762980939
lclavicle -8.35289340996677E-16 -1.7493127684298916E-16
lhumerus 3.073534176626037 -9.599703060301838 59.036518815474366
lradius 55.773764697668085
lwrist -11.272090479847916
lhand -38.86119227752151 -35.99039562029138
lfingers 7.125019999999983
lthumb -11.802280272613965 -6.2980565908348325
rfemur -25.35294412556286 1.7753295754470988 19.992285940935147
rtibia 47.796578736987385
rfoot -7.299568010621815 -9.867013088144088
rtoes -1.4407387984155537
lfemur -14.883794960064375 -0.30676688201999736 -17.174643013755865
ltibia 42.56699716548253
lfoot -6.02487580208967 -4.770943349098971
ltoes -6.241822775813248
116
root 0 0 0 0.46070193705034557 -3.1666467830716036 1.2538365027188678
lowerback 11.504221327279158 0.6334420188519168 -0.5294437876678574
upperback -2.77820627086068 0.8005492090016132 0.017355237454919514
thorax -9.449458104696745 0.3573727588885853 0.19673985910594094
lowerneck -9.801467691531215 0.2614195652450948 2.3750475138051
upperneck 18.551689593535265 1.1302927181084206 -5.5031359068280175
head 7.447130392289752 0.27250631980480455 -2.0896500565733023
rclavicle 2.12780609979162E-16 -7.367764172212394E-16
rhumerus 2.5810931905279233 3.438037505363896 -59.565935427959836
rradius 56.19542190249945
rwrist 17.53917245406232
rhand -28.400162560943023 -27.543476053348716
rfingers 7.125019999999986
rthumb -1.7675590203726497 -57.781908724237006
lclavicle -8.336729305174244E-16 -1.7347827535593865E-16
lhumerus 3.075067611882435 -9.600244670064965 59.03570079662303
lradius 55.774667426954004
lwrist -11.272852360918792
lhand -38.86163639221356 -35.99240800878205
lfingers 7.125019999999983
lthumb -11.802608047473369 -6.30076943128622
rfemur -25.24648814799309 1.8042832319557602 20.04551297205311
rtibia 47.66972444794479
rfoot -7.3487321537601265 -9.853888051049239
rtoes -1.4353960631935587
lfemur -14.863063906061168 -0.33718857766218036 -17.200125241162
ltibia 42.354293031138205
lfoot -6.097764285015214 -4.695934097122677
ltoes -6.205424714579248
